<svg width="20" height="20" viewBox="0 0 20 20" fill="none" xmlns="http://www.w3.org/2000/svg">
  <path d="M17.527 14.0283V16.4182C17.5279 16.64 17.4824 16.8596 17.3935 17.0629C17.3047 17.2662 17.1743 17.4487 17.0108 17.5987C16.8473 17.7487 16.6543 17.8628 16.4442 17.9339C16.234 18.005 16.0113 18.0314 15.7903 18.0114C13.339 17.7451 10.9843 16.9074 8.91545 15.5658C6.99067 14.3427 5.35879 12.7108 4.1357 10.786C2.78939 8.70781 1.95155 6.34166 1.69006 3.8793C1.67015 3.65901 1.69633 3.43698 1.76693 3.22736C1.83754 3.01774 1.95101 2.82512 2.10014 2.66175C2.24926 2.49839 2.43077 2.36787 2.6331 2.2785C2.83543 2.18913 3.05415 2.14286 3.27534 2.14266H5.66522C6.05183 2.13885 6.42663 2.27575 6.71976 2.52785C7.0129 2.77995 7.20436 3.13003 7.25847 3.51285C7.35934 4.27766 7.54641 5.02861 7.81611 5.75137C7.92329 6.0365 7.94649 6.34638 7.88295 6.64429C7.81942 6.9422 7.67181 7.21565 7.45763 7.43225L6.44591 8.44396C7.57995 10.4383 9.23128 12.0897 11.2257 13.2237L12.2374 12.212C12.454 11.9978 12.7274 11.8502 13.0253 11.7867C13.3232 11.7231 13.6331 11.7463 13.9183 11.8535C14.641 12.1232 15.392 12.3103 16.1568 12.4112C16.5437 12.4657 16.8972 12.6607 17.1498 12.9588C17.4024 13.257 17.5367 13.6376 17.527 14.0283Z" stroke="black" stroke-width="1.59325" stroke-linecap="round" stroke-linejoin="round"/>
</svg>