<svg width="16" height="20" viewBox="0 0 16 20" fill="none" xmlns="http://www.w3.org/2000/svg">
  <path d="M7.87462 0.759766C5.90269 0.759766 4.01153 1.54311 2.61716 2.93748C1.2228 4.33184 0.439453 6.22301 0.439453 8.19494C0.439453 13.2137 6.9917 18.883 7.27051 19.1246C7.43886 19.2686 7.6531 19.3477 7.87462 19.3477C8.09615 19.3477 8.31039 19.2686 8.47873 19.1246C8.80402 18.883 15.3098 13.2137 15.3098 8.19494C15.3098 6.22301 14.5264 4.33184 13.1321 2.93748C11.7377 1.54311 9.84655 0.759766 7.87462 0.759766ZM7.87462 17.1636C5.89501 15.3048 2.29825 11.2991 2.29825 8.19494C2.29825 6.71599 2.88576 5.29762 3.93153 4.25184C4.9773 3.20607 6.39568 2.61856 7.87462 2.61856C9.35357 2.61856 10.7719 3.20607 11.8177 4.25184C12.8635 5.29762 13.451 6.71599 13.451 8.19494C13.451 11.2991 9.85424 15.3141 7.87462 17.1636ZM7.87462 4.47735C7.13935 4.47735 6.4206 4.69538 5.80924 5.10388C5.19789 5.51237 4.7214 6.09298 4.44002 6.77228C4.15865 7.45158 4.08503 8.19906 4.22847 8.9202C4.37191 9.64134 4.72598 10.3038 5.24589 10.8237C5.76581 11.3436 6.42822 11.6976 7.14936 11.8411C7.8705 11.9845 8.61798 11.9109 9.29728 11.6295C9.97658 11.3482 10.5572 10.8717 10.9657 10.2603C11.3742 9.64896 11.5922 8.9302 11.5922 8.19494C11.5922 7.20897 11.2005 6.26339 10.5034 5.56621C9.80617 4.86902 8.86059 4.47735 7.87462 4.47735ZM7.87462 10.0537C7.50699 10.0537 7.14761 9.94471 6.84193 9.74046C6.53626 9.53622 6.29801 9.24591 6.15732 8.90626C6.01663 8.56661 5.97982 8.19287 6.05155 7.8323C6.12327 7.47173 6.3003 7.14053 6.56026 6.88057C6.82021 6.62061 7.15142 6.44358 7.51199 6.37186C7.87256 6.30014 8.2463 6.33695 8.58595 6.47763C8.9256 6.61832 9.21591 6.85657 9.42015 7.16225C9.6244 7.46792 9.73341 7.8273 9.73341 8.19494C9.73341 8.68792 9.53758 9.16071 9.18899 9.5093C8.8404 9.85789 8.3676 10.0537 7.87462 10.0537Z" fill="black"/>
</svg>