<svg width="252" height="105" viewBox="0 0 252 105" fill="none" xmlns="http://www.w3.org/2000/svg">
<path d="M0.72875 78V2.04H30.5853C35.4031 2.04 39.4473 3.02466 42.7178 4.994C45.9883 6.96333 48.4499 9.51291 50.1028 12.6427C51.7556 15.7374 52.582 19.0079 52.582 22.4542C52.582 26.6391 51.5446 30.2261 49.4698 33.2152C47.4301 36.2044 44.6695 38.2441 41.188 39.3342L41.0825 36.7495C45.9355 37.9452 49.6632 40.2837 52.2655 43.7652C54.8678 47.2116 56.169 51.2382 56.169 55.845C56.169 60.3112 55.2723 64.1971 53.4788 67.5027C51.7204 70.8084 49.1357 73.3932 45.7245 75.257C42.3485 77.0857 38.2516 78 33.4338 78H0.72875ZM11.9118 67.5027H31.7458C34.2426 67.5027 36.4757 67.028 38.445 66.0785C40.4495 65.129 42.0144 63.7751 43.1398 62.0167C44.3003 60.2232 44.8805 58.0957 44.8805 55.634C44.8805 53.3482 44.3706 51.2909 43.3508 49.4622C42.3661 47.5984 40.9243 46.139 39.0253 45.084C37.1614 43.9938 34.9635 43.4487 32.4315 43.4487H11.9118V67.5027ZM11.9118 33.057H30.427C32.4667 33.057 34.2953 32.6526 35.913 31.8437C37.5658 30.9997 38.867 29.8041 39.8165 28.2567C40.8012 26.6742 41.2935 24.7752 41.2935 22.5598C41.2935 19.6057 40.3088 17.1792 38.3395 15.2802C36.3702 13.3812 33.7327 12.4317 30.427 12.4317H11.9118V33.057ZM63.5012 78V0.457498H74.526V78H63.5012ZM110.886 79.5825C105.189 79.5825 100.248 78.2989 96.0637 75.7317C91.8788 73.1646 88.6435 69.6303 86.3577 65.129C84.107 60.5925 82.9817 55.3702 82.9817 49.4622C82.9817 43.5191 84.1422 38.2968 86.4632 33.7955C88.7842 29.259 92.0371 25.7423 96.2219 23.2455C100.407 20.7135 105.295 19.4475 110.886 19.4475C116.583 19.4475 121.524 20.7311 125.709 23.2982C129.894 25.8654 133.129 29.3997 135.415 33.901C137.701 38.4023 138.844 43.5894 138.844 49.4622C138.844 55.4054 137.683 60.6452 135.362 65.1817C133.077 69.6831 129.841 73.2173 125.656 75.7845C121.472 78.3165 116.548 79.5825 110.886 79.5825ZM110.886 69.1907C116.337 69.1907 120.399 67.3621 123.072 63.7047C125.779 60.0122 127.133 55.2647 127.133 49.4622C127.133 43.5191 125.762 38.7716 123.019 35.2197C120.311 31.6327 116.267 29.8392 110.886 29.8392C107.194 29.8392 104.152 30.6832 101.761 32.3712C99.3693 34.0241 97.5934 36.3275 96.4329 39.2815C95.2724 42.2003 94.6922 45.5939 94.6922 49.4622C94.6922 55.4406 96.0637 60.2232 98.8067 63.8102C101.55 67.3972 105.576 69.1907 110.886 69.1907ZM169.689 104.903C166.63 104.903 163.658 104.428 160.775 103.478C157.926 102.529 155.324 101.122 152.968 99.2583C150.612 97.4296 148.66 95.1613 147.112 92.4535L157.293 87.284C158.524 89.7105 160.282 91.4864 162.568 92.6118C164.854 93.7371 167.263 94.2998 169.795 94.2998C172.925 94.2998 175.597 93.7371 177.813 92.6118C180.028 91.5216 181.699 89.8688 182.824 87.6533C183.985 85.4378 184.547 82.6948 184.512 79.4243V63.4937H185.831V21.03H195.59V79.5298C195.59 81.0419 195.537 82.4838 195.431 83.8553C195.326 85.2268 195.133 86.5983 194.851 87.9698C194.042 91.8029 192.495 94.9679 190.209 97.4648C187.959 99.9616 185.075 101.825 181.558 103.056C178.077 104.287 174.12 104.903 169.689 104.903ZM168.845 79.5825C163.535 79.5825 158.946 78.2638 155.078 75.6262C151.245 72.9887 148.273 69.4017 146.163 64.8652C144.088 60.2936 143.051 55.1592 143.051 49.4622C143.051 43.7301 144.106 38.6133 146.216 34.112C148.326 29.5755 151.315 26.0061 155.183 23.4037C159.087 20.7662 163.711 19.4475 169.056 19.4475C174.437 19.4475 178.956 20.7662 182.613 23.4037C186.306 26.0061 189.084 29.5755 190.948 34.112C192.847 38.6485 193.796 43.7652 193.796 49.4622C193.796 55.1592 192.847 60.276 190.948 64.8125C189.049 69.349 186.253 72.9536 182.56 75.6262C178.868 78.2638 174.296 79.5825 168.845 79.5825ZM170.375 69.6127C173.997 69.6127 176.951 68.7512 179.237 67.028C181.523 65.3048 183.193 62.9311 184.248 59.9067C185.303 56.8824 185.831 53.4009 185.831 49.4622C185.831 45.5236 185.286 42.0421 184.196 39.0177C183.141 35.9934 181.488 33.6372 179.237 31.9492C177.022 30.2612 174.191 29.4172 170.744 29.4172C167.087 29.4172 164.08 30.314 161.724 32.1075C159.368 33.901 157.61 36.3099 156.449 39.3342C155.324 42.3586 154.761 45.7346 154.761 49.4622C154.761 53.2251 155.324 56.6362 156.449 59.6957C157.61 62.7201 159.333 65.129 161.619 66.9225C163.94 68.716 166.859 69.6127 170.375 69.6127ZM227.968 79.5298C221.04 79.5298 215.395 78 211.035 74.9405C206.674 71.881 204.001 67.5731 203.017 62.0167L214.305 60.276C215.009 63.23 216.626 65.5686 219.158 67.2917C221.725 68.9797 224.908 69.8237 228.706 69.8237C232.152 69.8237 234.843 69.1204 236.777 67.7137C238.746 66.3071 239.731 64.3729 239.731 61.9112C239.731 60.4694 239.379 59.3089 238.676 58.4297C238.008 57.5154 236.583 56.6538 234.403 55.845C232.223 55.0362 228.899 54.0339 224.433 52.8382C219.545 51.5722 215.659 50.2183 212.776 48.7765C209.927 47.2995 207.887 45.5939 206.657 43.6597C205.461 41.6904 204.863 39.3167 204.863 36.5385C204.863 33.0922 205.777 30.0854 207.606 27.5182C209.435 24.9511 212.002 22.9642 215.308 21.5575C218.648 20.1508 222.552 19.4475 227.018 19.4475C231.379 19.4475 235.265 20.1332 238.676 21.5047C242.087 22.8762 244.848 24.828 246.958 27.36C249.068 29.8568 250.334 32.7932 250.756 36.1692L239.467 38.2265C239.08 35.4835 237.797 33.3207 235.616 31.7382C233.436 30.1557 230.605 29.2942 227.124 29.1535C223.783 29.0128 221.075 29.5755 219 30.8415C216.925 32.0723 215.888 33.7779 215.888 35.9582C215.888 37.2242 216.275 38.2968 217.048 39.176C217.857 40.0552 219.404 40.8992 221.69 41.708C223.976 42.5168 227.352 43.4839 231.818 44.6092C236.601 45.8401 240.399 47.2116 243.212 48.7237C246.026 50.2007 248.03 51.9767 249.226 54.0515C250.457 56.0912 251.072 58.5704 251.072 61.4892C251.072 67.1159 249.015 71.5293 244.9 74.7295C240.821 77.9297 235.177 79.5298 227.968 79.5298Z" fill="url(#paint0_linear_348_905)"/>
<defs>
<linearGradient id="paint0_linear_348_905" x1="-6.65626" y1="40" x2="297.637" y2="262.489" gradientUnits="userSpaceOnUse">
<stop stop-color="#E31E24"/>
<stop offset="1" stop-color="#262065"/>
</linearGradient>
</defs>
</svg>
