<svg width="19" height="19" viewBox="0 0 19 19" fill="none" xmlns="http://www.w3.org/2000/svg">
  <path d="M8.30632 1.51074C6.81298 1.51074 5.35318 1.95357 4.11151 2.78322C2.86984 3.61288 1.90208 4.7921 1.33061 6.17176C0.759131 7.55143 0.609607 9.06957 0.900943 10.5342C1.19228 11.9989 1.91139 13.3442 2.96734 14.4002C4.02329 15.4561 5.36865 16.1752 6.8333 16.4666C8.29794 16.7579 9.81609 16.6084 11.1958 16.0369C12.5754 15.4654 13.7546 14.4977 14.5843 13.256C15.4139 12.0143 15.8568 10.5545 15.8568 9.0612C15.8568 8.06966 15.6615 7.08783 15.282 6.17176C14.9026 5.2557 14.3464 4.42334 13.6453 3.72222C12.9442 3.02109 12.1118 2.46493 11.1958 2.08549C10.2797 1.70604 9.29786 1.51074 8.30632 1.51074ZM8.30632 15.1016C7.11165 15.1016 5.9438 14.7473 4.95047 14.0836C3.95714 13.4199 3.18293 12.4765 2.72575 11.3727C2.26857 10.269 2.14895 9.0545 2.38202 7.88278C2.61509 6.71107 3.19038 5.63478 4.03514 4.79002C4.8799 3.94526 5.95619 3.36997 7.1279 3.1369C8.29962 2.90383 9.51413 3.02345 10.6179 3.48063C11.7216 3.93781 12.665 4.71202 13.3287 5.70535C13.9924 6.69868 14.3467 7.86653 14.3467 9.0612C14.3467 10.6632 13.7103 12.1996 12.5775 13.3324C11.4447 14.4652 9.90832 15.1016 8.30632 15.1016ZM10.647 9.53688L9.06136 8.62327V5.28597C9.06136 5.08572 8.98182 4.89367 8.84022 4.75207C8.69862 4.61047 8.50657 4.53092 8.30632 4.53092C8.10607 4.53092 7.91402 4.61047 7.77242 4.75207C7.63082 4.89367 7.55127 5.08572 7.55127 5.28597V9.0612C7.55127 9.0612 7.55127 9.1216 7.55127 9.1518C7.55574 9.20383 7.56849 9.25481 7.58903 9.30281C7.60458 9.34761 7.62482 9.39064 7.64943 9.43117C7.67009 9.47409 7.69541 9.5146 7.72493 9.55198L7.84574 9.65013L7.91369 9.71809L9.87681 10.8507C9.99189 10.9159 10.1221 10.9497 10.2543 10.9488C10.4215 10.95 10.5844 10.8956 10.7173 10.7943C10.8503 10.6929 10.9459 10.5503 10.989 10.3888C11.0322 10.2273 11.0206 10.056 10.9559 9.90185C10.8913 9.74767 10.7773 9.6193 10.6319 9.53688H10.647Z" fill="black"/>
</svg>